<?xml version="1.0" encoding="UTF-8"?>
<!--Generator: Apple Native CoreSVG 175-->
<!DOCTYPE svg
PUBLIC "-//W3C//DTD SVG 1.1//EN"
       "http://www.w3.org/Graphics/SVG/1.1/DTD/svg11.dtd">
<svg version="1.1" xmlns="http://www.w3.org/2000/svg" xmlns:xlink="http://www.w3.org/1999/xlink" width="19.6777" height="13.7598">
 <g>
  <rect height="13.7598" opacity="0" width="19.6777" x="0" y="0"/>
  <path d="M6.52344 1.76758L18.8867 1.76758Q19.2188 1.76758 19.4482 1.54297Q19.6777 1.31836 19.6777 0.986328Q19.6777 0.654297 19.4482 0.424805Q19.2188 0.195312 18.8867 0.195312L6.52344 0.195312Q6.19141 0.195312 5.96191 0.424805Q5.73242 0.654297 5.73242 0.986328Q5.73242 1.31836 5.96191 1.54297Q6.19141 1.76758 6.52344 1.76758ZM6.52344 7.67578L18.8867 7.67578Q19.2188 7.67578 19.4482 7.44629Q19.6777 7.2168 19.6777 6.88477Q19.6777 6.55273 19.4482 6.32812Q19.2188 6.10352 18.8867 6.10352L6.52344 6.10352Q6.19141 6.10352 5.96191 6.32812Q5.73242 6.55273 5.73242 6.88477Q5.73242 7.2168 5.96191 7.44629Q6.19141 7.67578 6.52344 7.67578ZM6.52344 13.5742L18.8867 13.5742Q19.2188 13.5742 19.4482 13.3496Q19.6777 13.125 19.6777 12.793Q19.6777 12.4609 19.4482 12.2314Q19.2188 12.002 18.8867 12.002L6.52344 12.002Q6.19141 12.002 5.96191 12.2314Q5.73242 12.4609 5.73242 12.793Q5.73242 13.125 5.96191 13.3496Q6.19141 13.5742 6.52344 13.5742ZM0.966797 1.95312L2.63672 1.95312Q3.03711 1.95312 3.3252 1.66504Q3.61328 1.37695 3.61328 0.986328Q3.61328 0.576172 3.3252 0.292969Q3.03711 0.00976562 2.63672 0.00976562L0.966797 0.00976562Q0.566406 0.00976562 0.283203 0.292969Q0 0.576172 0 0.986328Q0 1.37695 0.283203 1.66504Q0.566406 1.95312 0.966797 1.95312ZM0.966797 7.86133L2.63672 7.86133Q3.03711 7.86133 3.3252 7.57324Q3.61328 7.28516 3.61328 6.88477Q3.61328 6.48438 3.3252 6.20117Q3.03711 5.91797 2.63672 5.91797L0.966797 5.91797Q0.566406 5.91797 0.283203 6.20117Q0 6.48438 0 6.88477Q0 7.28516 0.283203 7.57324Q0.566406 7.86133 0.966797 7.86133ZM0.966797 13.7598L2.63672 13.7598Q3.03711 13.7598 3.3252 13.4766Q3.61328 13.1934 3.61328 12.793Q3.61328 12.3828 3.3252 12.0996Q3.03711 11.8164 2.63672 11.8164L0.966797 11.8164Q0.566406 11.8164 0.283203 12.0996Q0 12.3828 0 12.793Q0 13.1934 0.283203 13.4766Q0.566406 13.7598 0.966797 13.7598Z" fill="rgba(255,255,255,0.85)"/>
 </g>
</svg>
